<svg width="149" height="147" viewBox="0 0 149 147" fill="none" xmlns="http://www.w3.org/2000/svg">
<mask id="mask0_0_5638" style="mask-type:luminance" maskUnits="userSpaceOnUse" x="0" y="0" width="149" height="147">
<ellipse cx="74.5" cy="73.0588" rx="74.5" ry="73.0588" fill="white"/>
</mask>
<g mask="url(#mask0_0_5638)">
<path d="M100.752 96.6215L65.0277 152.672L39.8607 117.71L70.6932 77.6963L100.752 96.6215V96.6215Z" fill="#F5F6F7"/>
<mask id="mask1_0_5638" style="mask-type:luminance" maskUnits="userSpaceOnUse" x="39" y="77" width="62" height="76">
<path fill-rule="evenodd" clip-rule="evenodd" d="M100.752 96.6215L65.0278 152.672L39.8608 117.71L70.6932 77.6963L100.752 96.6215V96.6215Z" fill="white"/>
</mask>
<g mask="url(#mask1_0_5638)">
<path d="M74.749 81.5278C94.8378 93.511 76.7941 115.9 83.5835 126.833C90.3728 137.767 100.479 93.9441 100.479 93.9441L82.5776 86.619" fill="#B2CCF7"/>
</g>
<path fill-rule="evenodd" clip-rule="evenodd" d="M100.752 96.6215L65.0277 152.672L39.8607 117.71L70.6932 77.6963L100.752 96.6215V96.6215Z" stroke="#0F2B5E" stroke-width="4.95868" stroke-linecap="round" stroke-linejoin="round"/>
<path d="M85.4582 77.6947C143.789 74.2038 133.108 22.3726 113.665 32.5793C104.25 37.9694 94.1096 42.0374 83.5414 44.6643L85.4582 77.6947Z" fill="#6E9BFA" stroke="#0F2B5E" stroke-width="4.95868" stroke-linecap="round" stroke-linejoin="round"/>
<path d="M80.0375 94.9764C128.963 137.707 125.294 56.1513 111.457 46.6891C97.2162 36.9504 63.5499 75.8097 63.5499 75.8097" fill="#F5F6F7"/>
<path d="M80.0375 94.9764C128.963 137.707 125.294 56.1513 111.457 46.6891C97.2162 36.9504 63.5499 75.8097 63.5499 75.8097" stroke="#0F2B5E" stroke-width="4.95868" stroke-linecap="round" stroke-linejoin="round"/>
<path d="M57.3799 94.974C57.3799 94.974 85.1843 70.4442 85.732 64.2674C85.732 64.2674 115.034 61.8504 113.665 32.578C67.6597 12.7062 36.6978 18.8109 30.9469 65.5393C33.3439 66.4486 36.0126 66.3774 38.3557 65.3417C36.1642 81.7234 54.3675 82.3518 57.3799 94.974Z" fill="#6E9BFA" stroke="#0F2B5E" stroke-width="4.95868" stroke-linecap="round" stroke-linejoin="round"/>
<path d="M85.7202 69.5192C63.5499 50.4178 48.8726 74.6656 72.4027 86.6209Z" fill="#F5F6F7"/>
<path d="M85.7202 69.5192C63.5499 50.4178 48.8726 74.6656 72.4027 86.6209" stroke="#0F2B5E" stroke-width="4.95868" stroke-linecap="round" stroke-linejoin="round"/>
<path d="M52.1271 98.114C71.1846 100.45 71.3405 134.183 71.3405 134.183L37.8539 200.937C37.8539 200.937 9.07507 278.608 -4.09987 280.224C-70.6303 273.183 -114.779 201.67 -114.779 201.67C-114.779 201.67 -6.06305 95.4221 52.1271 98.114Z" fill="#ECEDEE"/>
<mask id="mask2_0_5638" style="mask-type:luminance" maskUnits="userSpaceOnUse" x="-115" y="98" width="187" height="183">
<path fill-rule="evenodd" clip-rule="evenodd" d="M52.1271 98.1138C71.1846 100.45 71.3405 134.182 71.3405 134.182L37.8539 200.937C37.8539 200.937 9.07507 278.608 -4.09987 280.223C-70.6303 273.183 -114.779 201.67 -114.779 201.67C-114.779 201.67 -6.06305 95.4219 52.1271 98.1138Z" fill="white"/>
</mask>
<g mask="url(#mask2_0_5638)">
</g>
<path fill-rule="evenodd" clip-rule="evenodd" d="M52.1271 98.114C71.1846 100.45 71.3405 134.183 71.3405 134.183L37.8539 200.937C37.8539 200.937 9.07507 278.608 -4.09987 280.224C-70.6303 273.183 -114.779 201.67 -114.779 201.67C-114.779 201.67 -6.06305 95.4221 52.1271 98.114Z" stroke="#0F2B5E" stroke-width="4.95868" stroke-linecap="round" stroke-linejoin="round"/>
<path d="M16.3601 145.958L35.6662 234.897C36.3271 238.493 37.7225 241.921 39.7684 244.975L89.9875 319.938C105.592 317.696 114.319 285.215 114.319 285.215L89.7691 222.701L69.7918 120.773" fill="#ECEDEE"/>
<path d="M16.3601 145.958L35.6662 234.897C36.3271 238.493 37.7225 241.921 39.7684 244.975L89.9875 319.938C105.592 317.696 114.319 285.215 114.319 285.215L89.7691 222.701L69.7918 120.773" stroke="#0F2B5E" stroke-width="4.95868" stroke-linecap="round" stroke-linejoin="round"/>
<path d="M110.814 73.8925V73.8925C109.483 74.3416 108.028 73.6886 107.505 72.4079L105.46 68.3058C105.115 67.7447 105.015 67.0714 105.182 66.4372C105.349 65.803 105.768 65.2611 106.346 64.9332V64.9332C107.677 64.4843 109.132 65.1373 109.655 66.4178L111.7 70.5199C112.045 71.0809 112.146 71.7544 111.979 72.3887C111.812 73.0231 111.392 73.565 110.814 73.8925V73.8925Z" fill="#0F2B5E"/>
<path d="M104.267 55.0853C95.3224 58.6843 95.1033 63.0197 100.849 61.1163C106.594 59.2129 110.11 52.7337 104.267 55.0853Z" fill="#0F2B5E"/>
<path d="M114.454 62.9653C127.524 68.7034 125.857 75.3561 118.415 77.6246Z" fill="#F5F6F7"/>
<path d="M114.454 62.9653C127.524 68.7034 125.857 75.3561 118.415 77.6246" stroke="#0F2B5E" stroke-width="4.95868" stroke-linecap="round" stroke-linejoin="round"/>
<ellipse opacity="0.27" cx="94.2494" cy="78.3495" rx="8.18291" ry="3.82335" fill="#B2CCF7"/>
<path d="M104.458 80.9153C106.737 82.3335 109.462 82.8958 112.131 82.4987Z" fill="#F5F6F7"/>
<path d="M104.458 80.9153C106.737 82.3335 109.462 82.8958 112.131 82.4987" stroke="#0F2B5E" stroke-width="4.95868" stroke-linecap="round" stroke-linejoin="round"/>
<path d="M74.7041 72.594C74.3081 71.4272 72.3185 71.517 71.7546 72.6146C71.2971 73.8061 71.7952 75.1466 72.9271 75.7701" stroke="#0F2B5E" stroke-width="4.95868" stroke-linecap="round" stroke-linejoin="round"/>
<path d="M77.5078 32.2886C77.9291 35.7559 76.4448 39.1824 73.6075 41.2921" stroke="#0F2B5E" stroke-width="4.95868" stroke-linecap="round" stroke-linejoin="round"/>
</g>
</svg>
